PathFileType	4	(X/Y/Z)	s02c0203.trc
DataRate	CameraRate	NumFrames	NumMarkers	Units	OrigDataRate	OrigDataStartFrame	OrigNumFrames
200	200	5	51	mm	200	1750	2000
Frame#	Time	racr			lacr			c7			jug			rlel			rdr			llel			ldr			s2			lic			ric			lasi			rasi			rpsi			lpsi			rgt			lgt			rth1			rth2			rth3			rth4			rlfc			rmfc			rsh1			rsh2			rsh3			rsh4			rlmal			rmmal			rcal			rtoe			rmt5			rmt1			lth1			lth2			lth4			lth3			llfc			lmfc			lsh1			lsh2			lsh3			lsh4			llmal			lmmal			lcal			ltoe			lmt5			SBIKE			LBIKE			RBIKE			
		X1	Y1	Z1	X2	Y2	Z2	X3	Y3	Z3	X4	Y4	Z4	X5	Y5	Z5	X6	Y6	Z6	X7	Y7	Z7	X8	Y8	Z8	X9	Y9	Z9	X10	Y10	Z10	X11	Y11	Z11	X12	Y12	Z12	X13	Y13	Z13	X14	Y14	Z14	X15	Y15	Z15	X16	Y16	Z16	X17	Y17	Z17	X18	Y18	Z18	X19	Y19	Z19	X20	Y20	Z20	X21	Y21	Z21	X22	Y22	Z22	X23	Y23	Z23	X24	Y24	Z24	X25	Y25	Z25	X26	Y26	Z26	X27	Y27	Z27	X28	Y28	Z28	X29	Y29	Z29	X30	Y30	Z30	X31	Y31	Z31	X32	Y32	Z32	X33	Y33	Z33	X34	Y34	Z34	X35	Y35	Z35	X36	Y36	Z36	X37	Y37	Z37	X38	Y38	Z38	X39	Y39	Z39	X40	Y40	Z40	X41	Y41	Z41	X42	Y42	Z42	X43	Y43	Z43	X44	Y44	Z44	X45	Y45	Z45	X46	Y46	Z46	X47	Y47	Z47	X48	Y48	Z48	X49	Y49	Z49	X50	Y50	Z50	X51	Y51	Z51	
1750	8.7500	514.849812	1241.745034	-136.314943	567.335864	1209.521906	-450.374417	523.921471	1273.083676	-302.793431	467.389101	1142.535871	-295.370195	541.582472	1008.164020	-12.798923	696.034858	890.527725	-102.400824	542.680412	1005.880663	-642.832311	691.713340	876.869301	-556.209995	1.253264	1114.884045	-345.872803	127.960275	1101.922872	-484.478834	111.230856	1121.325300	-192.244761	168.667839	1069.523881	-452.023289	165.384435	1108.852654	-225.533209	12.032056	1148.918420	-312.557628	25.964289	1151.980406	-398.024984	102.147537	1039.604487	-154.728579	85.715391	1004.059619	-510.911607	195.024657	1005.415005	-144.654825	279.343459	978.997291	-147.004000	339.533733	924.016450	-121.823012	295.625651	1001.771048	-172.795492	439.196829	814.822529	-150.548204	436.994280	794.906292	-259.976132	431.786857	702.305770	-134.098569	431.456375	614.092366	-152.446066	393.003297	538.070152	-148.641891	447.105459	613.490381	-188.761028	353.062361	429.543598	-154.185328	359.938048	447.280897	-234.059485	278.599992	378.880753	-194.106602	565.342538	372.432672	-193.430475	456.704209	356.892288	-132.168707	482.133706	374.132164	-239.172478	205.220974	923.363665	-520.905831	280.868874	880.096699	-517.832253	303.566111	903.163949	-499.489334	324.405331	802.540425	-518.856662	383.345636	722.563108	-494.980074	381.434259	694.330009	-390.433967	325.866500	635.634110	-512.329424	283.596676	562.415355	-493.723750	206.592446	515.426210	-495.622922	299.703197	552.155035	-457.210347	124.672822	452.354560	-480.283598	138.261176	438.868363	-404.280398	45.881304	456.402732	-439.658002	231.710813	237.581370	-440.368335	142.917807	297.983551	-503.068046	-129.277527	869.060429	-314.616974	32.458372	82.466386	-515.207130	32.441118	82.615464	-115.315206	
1751	8.7550	514.790683	1241.358241	-136.689857	566.719140	1209.485321	-451.148011	523.655638	1272.578602	-303.262933	467.161157	1142.024306	-295.667870	540.727603	1007.872412	-13.018966	695.420329	890.400116	-102.192367	542.285987	1005.519236	-642.948421	691.803691	876.951210	-556.313343	0.940620	1113.534155	-345.718753	127.557436	1100.924956	-484.255294	111.073344	1120.317209	-191.915680	168.254664	1068.861240	-451.711371	165.452370	1107.843225	-224.949397	11.837614	1147.537615	-311.994624	25.737453	1150.564997	-397.787210	101.738480	1037.842613	-154.177018	86.354502	1003.543063	-511.096290	194.238466	1001.708451	-145.212124	278.167991	974.016515	-147.012250	337.108493	917.307226	-121.981288	294.972791	996.238166	-172.761600	435.019660	807.024112	-151.249112	432.424526	787.217574	-261.103391	428.947336	694.441323	-134.107242	429.891549	606.002389	-152.336432	392.544775	529.429452	-148.230781	445.396071	605.144327	-189.306862	354.430108	419.032224	-153.588600	361.684226	438.066353	-233.821922	280.047711	368.943797	-193.646728	566.883647	361.007884	-193.511635	458.224859	345.987207	-132.107932	484.860021	364.652907	-236.417974	207.406998	925.726617	-520.424542	284.081967	884.340500	-517.138016	306.013834	907.698557	-498.258384	329.376414	807.633185	-518.119886	391.449516	729.855926	-496.651575	386.579693	700.113562	-389.594316	331.043540	642.491603	-511.931033	287.387526	570.130598	-493.433561	209.613622	524.488597	-495.494610	303.267275	559.611213	-456.884677	126.514928	462.986998	-480.439548	139.973186	449.072684	-404.434499	47.756446	468.231580	-439.742609	230.179760	246.749571	-440.387684	142.367873	308.329609	-503.113200	-129.278555	869.115834	-314.515729	32.479143	82.466021	-515.198959	32.451371	82.620775	-115.312069	
1752	8.7600	514.867579	1240.910310	-137.125800	566.029446	1209.565551	-452.128777	523.412295	1272.258614	-303.887797	466.860405	1141.731494	-296.250931	539.972192	1007.604738	-13.190235	694.910692	890.203569	-102.241793	541.953163	1005.031641	-643.081410	691.876344	876.923808	-556.376436	0.324152	1112.165709	-345.771398	126.980223	1100.137087	-483.941219	111.083248	1119.205215	-191.414590	167.885516	1068.291686	-451.295011	165.495078	1106.894119	-224.410646	11.744122	1146.033181	-311.157970	25.545393	1149.067130	-397.430252	101.633158	1036.178698	-153.983072	86.962945	1003.397147	-510.744465	193.332892	998.151896	-145.637722	277.285008	969.292806	-146.632995	334.370484	910.873693	-122.013077	294.147345	991.059044	-172.727764	429.728935	798.459015	-153.643856	428.027409	778.911318	-262.419300	425.521729	686.498625	-134.307043	427.956428	597.913264	-152.163531	391.953033	520.573383	-147.848300	443.357610	597.231990	-189.257092	355.567825	409.027216	-153.052948	364.433752	428.716318	-235.362415	281.038189	359.178985	-193.092260	567.890484	349.250240	-193.573199	459.193859	335.031610	-132.024577	485.042182	352.259812	-238.518135	209.355409	928.083018	-519.922003	287.046226	888.719234	-516.453604	308.207542	912.362923	-497.115028	334.352366	813.117298	-517.852170	395.595789	735.494532	-494.921023	393.967849	705.708795	-390.227188	336.299724	649.641443	-511.494456	291.483465	578.000414	-493.075685	212.725895	533.624547	-495.666167	306.860198	567.155260	-456.267815	128.727572	473.633308	-480.466147	141.960357	459.571298	-404.444187	49.771892	480.038190	-439.889515	229.372399	255.952898	-440.377308	142.452294	318.933840	-503.143123	-129.280860	869.128537	-314.498775	32.480384	82.458686	-515.207398	32.270486	82.880653	-115.236942	
1753	8.7650	515.012838	1240.522199	-137.640552	565.223504	1209.805460	-453.330527	523.080137	1271.993281	-304.723388	466.687122	1141.404152	-296.974940	539.275368	1007.283714	-13.433748	694.430036	890.099850	-102.149088	541.806964	1004.646980	-643.139289	691.902772	876.709274	-556.407629	0.041191	1110.696318	-345.235362	126.401334	1099.403491	-483.506321	111.268832	1118.340235	-190.841486	167.423209	1067.679525	-450.736240	165.794493	1106.070453	-223.798727	11.773116	1144.058970	-310.455058	25.559633	1147.608402	-396.984052	101.582192	1034.573316	-153.701714	87.404730	1003.119801	-510.546153	192.767392	995.348882	-144.872017	275.325897	963.327356	-147.847540	331.628670	904.375728	-122.272379	293.348638	986.314430	-172.003085	424.971878	790.545840	-154.266965	422.017882	770.748830	-262.881429	421.776968	678.146608	-135.033306	425.617658	589.732508	-152.080191	390.856530	511.852094	-147.440110	440.640204	589.279508	-189.332356	356.181300	399.017339	-152.547268	364.862515	418.923986	-234.810995	281.523570	349.896919	-192.622674	568.306426	337.451055	-193.595724	459.569119	324.111608	-131.975473	485.451594	341.226005	-238.255309	211.096005	930.550215	-519.417279	289.740503	893.179838	-515.853735	310.240143	917.117333	-496.080671	338.965878	818.755550	-517.517708	401.409177	742.245089	-494.562600	397.529172	709.980060	-389.112278	341.531121	656.994021	-511.076541	295.598424	586.074490	-492.689219	216.299981	542.753267	-495.468017	310.778392	574.968852	-455.831946	131.168058	484.326481	-480.387192	144.237983	470.059365	-404.396562	52.261925	491.673451	-439.892641	229.262147	265.603811	-440.460286	143.148426	329.520104	-503.124563	-129.286714	869.116305	-314.470335	32.481681	82.463099	-515.200059	32.819015	82.407088	-115.165522	
1754	8.7700	515.302332	1240.067957	-138.278281	564.292608	1210.042235	-454.527150	522.884390	1271.814953	-305.658217	466.254527	1141.328802	-297.900477	538.788494	1006.999892	-13.633308	694.071374	889.974401	-101.953350	541.642021	1003.998154	-643.372466	691.896180	876.441156	-556.438224	-0.794586	1109.447020	-344.603965	125.789343	1098.433669	-483.042257	111.533396	1117.398842	-190.188584	167.053989	1067.227273	-450.289224	166.170833	1105.129960	-222.981000	11.998756	1142.167424	-309.605985	24.960583	1146.482383	-395.798306	101.438285	1033.118562	-153.198935	87.788443	1002.936764	-510.187887	192.015579	992.368420	-144.561435	273.749806	958.093888	-147.793007	328.598986	897.570568	-122.659434	292.287017	981.158008	-171.668142	420.082693	782.813735	-154.058980	416.585222	762.790764	-263.611729	417.458380	669.901475	-135.249774	424.470363	581.781850	-151.433522	389.228532	503.152489	-147.224318	437.556768	582.063312	-188.317028	356.150053	389.336458	-152.138771	364.568272	409.074611	-234.256421	281.292305	340.826668	-192.300935	567.933505	325.378879	-193.842208	459.236344	313.289322	-131.978090	485.244279	330.278876	-238.273198	212.586382	933.153081	-519.033281	292.130212	897.779488	-515.300467	311.803496	922.095245	-495.071184	343.345239	824.841265	-517.538714	407.063031	749.374592	-494.365799	399.947727	718.278750	-390.559687	346.733242	664.463082	-510.631018	299.754527	594.256090	-492.217959	219.972232	551.959861	-495.135812	314.793573	583.124907	-455.388748	133.872348	494.898073	-480.244604	146.776536	480.498427	-404.276771	55.131978	503.034341	-439.572349	229.897615	275.442724	-440.458306	144.392696	340.242907	-503.093549	-129.294795	869.117231	-314.445057	32.485799	82.454687	-515.205526	32.270251	82.864786	-115.227669	
